# xmcd CD database file generated by OrangeCD 6.0
#
# Track frame offsets:
#	150
#	13843
#	26000
#	38177
#	52407
#	65881
#	78319
#	91658
#	106828
#	119054
#	127225
#	139381
#	150338
#	161292
#	176928
#	186692
#	204375
#	215543
#	225398
#	242180
#	252008
#	266685
#	277783
#	289974
#	301081
#
# Disc length: 4214 seconds
#
# Revision: 0
# Processed by: cddbd v1.5.2PL0 Copyright (c) Steve Scherf et al.
# Submitted via: OrangeCD 6.0
#
DISCID=74107419
DTITLE=Various Artist - Nashville Mandolins Play Their 100 Best
DYEAR=2005
DGENRE=
TTITLE0=Sunny Side Of The Mountain
TTITLE1=Rock-A-My Soul
TTITLE2=Red River Valley
TTITLE3=Keep On The Sunny Side
TTITLE4=I Won't Have To Cross Jordan Alone
TTITLE5=Down In The Valley
TTITLE6=Shenendoah
TTITLE7=What A Friend We Have In Jesus
TTITLE8=Beautiful Dreamer
TTITLE9=Frankie And Johnny
TTITLE10=Swing Low, Sweet Chariot
TTITLE11=Bugle Call Rag
TTITLE12=Faith Of Our Fathers
TTITLE13=Hello Central, Give Me Heavy
TTITLE14=On The Banks Of The Ohio
TTITLE15=Holy Holy Holy
TTITLE16=Where The Roses Never Fade
TTITLE17=Whiskey Before Breakfast
TTITLE18=Will There Be Any Stars In My Crown
TTITLE19=Seneca Square Dance
TTITLE20=Kum-By-Yah
TTITLE21=Bully Of The Town
TTITLE22=A Mighty Fortress Is Our God
TTITLE23=Chinese Breakdown
TTITLE24=Amen
EXTD=
EXTT0=
EXTT1=
EXTT2=
EXTT3=
EXTT4=
EXTT5=
EXTT6=
EXTT7=
EXTT8=
EXTT9=
EXTT10=
EXTT11=
EXTT12=
EXTT13=
EXTT14=
EXTT15=
EXTT16=
EXTT17=
EXTT18=
EXTT19=
EXTT20=
EXTT21=
EXTT22=
EXTT23=
EXTT24=
PLAYORDER=
